# xmcd
#
# Track frame offsets:
#	150
#	12283
#	24224
#	37652
#	54605
#	65159
#	74822
#	88548
#	102435
#	113665
#
# Disc length: 1676 seconds
#
# Revision: 1
# Processed by: cddbd v1.5.2PL0 Copyright (c) Steve Scherf et al.
# Submitted via: audiograbber 1.83.01
#
DISCID=7f068a0a
DTITLE=Willie Nelson - The Willie Way
DYEAR=1972
DGENRE=Country
TTITLE0=You Left Me A Long, Long Time Ago
TTITLE1=Wonderful Future
TTITLE2=Help Me Make It Through The Night
TTITLE3=Wake Me When It's Over
TTITLE4=Undo The Right
TTITLE5=Mountain Dew
TTITLE6=Home Is Where You're Happy
TTITLE7=A Moment Isn't Very Long
TTITLE8=What Do You Want Me To Do?
TTITLE9=I'd Rather You Didn't Love Me
EXTD=
EXTT0=
EXTT1=
EXTT2=
EXTT3=
EXTT4=
EXTT5=
EXTT6=
EXTT7=
EXTT8=
EXTT9=
PLAYORDER=
